<?xml version="1.0" encoding="utf-8"?>
<!-- Generator: Adobe Illustrator 27.1.1, SVG Export Plug-In . SVG Version: 6.00 Build 0)  -->
<svg version="1.1" id="Calque_1" xmlns="http://www.w3.org/2000/svg" xmlns:xlink="http://www.w3.org/1999/xlink" x="0px" y="0px"
	 viewBox="0 0 114.1 105.6" style="enable-background:new 0 0 114.1 105.6;" xml:space="preserve">
<style type="text/css">
	.st0{fill:#FFFFFF;}
	.st1{fill:#0021C0;}
	.st2{fill:none;}
</style>
<path class="st0" d="M76.6,24.5c-0.5-1.1-1.1-2.1-1.9-3c-0.8-0.8-1.8-1.5-2.9-2c-1.1-0.5-2.3-0.8-3.5-0.8h-6.9c-0.7,0-1.3,0.1-2,0.3
	l-0.4,0.1c-2.1,0.5-3.8,1.6-5.1,3.3c-1.3,1.7-1.9,3.7-1.9,5.9v46.8c0,0.6,0.7,0.9,1.2,0.6l0,0c0.9-0.7,1.8-1.3,2.7-2
	c0.2-0.1,0.3-0.3,0.3-0.6v-4.8c0-1.8,0.5-3.5,1.5-5c1-1.5,2.3-2.7,3.8-3.5l8.3-3.7c2.4-1.1,4.2-2.7,5.7-5c1.4-2.2,2.1-4.7,2.1-7.4
	V28.2C77.3,26.9,77,25.7,76.6,24.5L76.6,24.5z M73.2,43.8c0,1.9-0.5,3.6-1.4,5.1c-1,1.5-2.2,2.7-3.9,3.4L59.6,56
	c-0.9,0.4-1.8,0.9-2.5,1.5c-0.5,0.4-1.2,0-1.2-0.6V28.4c0-1.2,0.3-2.3,1.1-3.2c0.7-0.9,1.6-1.5,2.7-1.8c0,0,0,0,0.1,0l0.4-0.1
	c0,0,0,0,0,0c0.4-0.1,0.8-0.2,1.1-0.2h6.9c1.3,0,2.5,0.5,3.5,1.5c1,1,1.5,2.2,1.5,3.6V43.8z"/>
<path class="st1" d="M36.9,86.4c0,0-0.1,0-0.1-0.1c-2.1-0.5-3.8-1.6-5.1-3.2c-1.3-1.7-2-3.6-2-5.8V32.8c0-2.2,0.7-4.2,2-5.9
	c1.3-1.7,3.1-2.8,5.2-3.2l0.4-0.1c0.7-0.2,1.4-0.3,2.1-0.3h7.2c1.3,0,2.5,0.2,3.6,0.7c1.1,0.5,2.1,1.1,3,2s1.5,1.8,2,2.9
	c0.5,1.1,0.7,2.4,0.7,3.6v3.8c0,1.2-0.9,2.1-2.1,2.1l0,0c-1.2,0-2.1-0.9-2.1-2.1v-3.8c0-1.4-0.5-2.6-1.5-3.6s-2.2-1.5-3.6-1.5h-7.2
	c-0.3,0-0.6,0-1.1,0.2c0,0-0.1,0-0.1,0l-0.3,0.1c-0.1,0-0.1,0-0.2,0c-1.1,0.3-2,0.9-2.7,1.8c-0.7,0.9-1.1,2-1.1,3.2v44.6
	c0,1.2,0.4,2.2,1.1,3.2c0.7,0.9,1.6,1.5,2.8,1.8c0.1,0,0.1,0,0.2,0l0,0c0,0,0.1,0,0.2,0c0.2,0.1,0.4,0.1,0.5,0.1c0.2,0,0.4,0,0.6,0
	h6.5c0.2,0,0.3,0,0.5,0c0.1,0,0.2,0,0.3,0c0.2,0,0.3,0,0.5-0.1l0.7-0.2c1.2-0.3,2.1-0.9,2.9-1.8c0.8-0.9,1.1-2,1.1-3.2v-3.4
	c0-1.2,0.9-2.1,2.1-2.1l0,0c1.2,0,2.1,0.9,2.1,2.1v3.4c0,2.2-0.7,4.2-2.1,5.8c-1.4,1.7-3.2,2.8-5.2,3.2l-0.9,0.2c0,0-0.1,0-0.2,0
	c-0.3,0.1-0.6,0.1-0.9,0.1c-0.3,0-0.7,0-1,0h-6.5c-0.7,0-1.4-0.1-2.1-0.2C37,86.5,37,86.5,36.9,86.4L36.9,86.4L36.9,86.4z"/>
<rect class="st2" width="114.1" height="105.6"/>
</svg>
